<svg id="Layer_3" enable-background="new 0 0 64 64" height="512" viewBox="0 0 64 64" width="512" xmlns="http://www.w3.org/2000/svg"><path d="m30 34h6v4h-6z" fill="#f4b2b0"/><path d="m18 62c2.209 0 4-1.791 4-4v-28h-8v28c0 2.209 1.791 4 4 4z" fill="#f4b2b0"/><g fill="#b3404a"><path d="m15.617 1.076c-.374.155-.617.52-.617.924v27h-1c-.553 0-1 .448-1 1v28c0 2.757 2.243 5 5 5s5-2.243 5-5v-28c0-.552-.447-1-1-1h-1v-4h3c.553 0 1-.448 1-1v-2.687c0-7.562-2.945-14.672-8.293-20.021-.286-.285-.716-.37-1.09-.216zm5.383 29.924v2h-6v-2zm-3 30c-1.654 0-3-1.346-3-3v-23h6v23c0 1.654-1.346 3-3 3zm5-39.687v1.687h-3c-.553 0-1 .448-1 1v5h-2v-24.417c3.886 4.702 6 10.554 6 16.73z"/><path d="m30.968 1.748c-.127-.487-.595-.809-1.095-.739-.499.063-.873.488-.873.991v57c0 2.206 1.794 4 4 4s4-1.794 4-4v-34c0-.085-.011-.17-.032-.252zm4.032 23.38v7.872h-4v-23.205zm0 9.872v2h-4v-2zm-2 26c-1.103 0-2-.897-2-2v-20h4v20c0 1.103-.897 2-2 2z"/><path d="m50.707 17.293-1.707-1.707v-9.586c0-.265-.105-.52-.293-.707l-4-4c-.286-.286-.715-.371-1.09-.217-.374.155-.617.52-.617.924v13.586l-1.707 1.707c-.188.187-.293.442-.293.707v40c0 .265.105.52.293.707l4 4c.195.195.451.293.707.293s.512-.098.707-.293l4-4c.188-.187.293-.442.293-.707v-40c0-.265-.105-.52-.293-.707zm-1.707 31.293-6 6v-7.172l6-6zm0-10-6 6v-7.172l6-6zm0-10-6 6v-7.172l6-6zm-4.293-11.879c.188-.187.293-.442.293-.707v-11.586l2 2v9.586c0 .265.105.52.293.707l1.707 1.707v.172l-6 6v-6.172zm1.293 43.879-3-3v-.172l6-6v6.172z"/></g></svg>